# xmcd CD database file
#
# Track frame offsets:
#	150
#	42367
#	79110
#	122871
#	157683
#	192227
#	224962
#
# Disc length: 3603 seconds
#
# Revision: 1
# Processed by: cddbd v1.5.2PL0 Copyright (c) Steve Scherf et al.
# Submitted via: CDex 1.70beta2
#
DISCID=5f0e1107
DTITLE=Danny Grissett - Form
DYEAR=2009
DGENRE=Jazz
TTITLE0=King Cobra
TTITLE1=Heard's Word
TTITLE2=Without You
TTITLE3=Let's Face The Music And Dance
TTITLE4=Distant
TTITLE5=Ugly Beauty
TTITLE6=Are We There Yet? 
EXTD=YEAR: 2009
EXTT0=
EXTT1=
EXTT2=
EXTT3=
EXTT4=
EXTT5=
EXTT6=
PLAYORDER=
